<mxfile host="app.diagrams.net" modified="2023-05-22T06:47:29.546Z" agent="Mozilla/5.0 (Windows NT 10.0; Win64; x64) AppleWebKit/537.36 (KHTML, like Gecko) Chrome/110.0.0.0 YaBrowser/23.3.3.719 Yowser/2.5 Safari/537.36" etag="ZSwrApzUKK-fOUwmWH7q" version="21.3.0" type="github">
  <diagram name="Страница 1" id="SGJ52EowYoGvM5bgdT4J">
    <mxGraphModel dx="1155" dy="659" grid="1" gridSize="10" guides="1" tooltips="1" connect="1" arrows="1" fold="1" page="1" pageScale="1" pageWidth="827" pageHeight="1169" math="0" shadow="0">
      <root>
        <mxCell id="0" />
        <mxCell id="1" parent="0" />
        <mxCell id="qGKSi0UmujYfA3TloqsL-1" value="Электронный образовательный ресурс" style="rounded=1;whiteSpace=wrap;html=1;fontSize=17;fontStyle=1" vertex="1" parent="1">
          <mxGeometry x="240" y="40" width="366" height="60" as="geometry" />
        </mxCell>
        <mxCell id="qGKSi0UmujYfA3TloqsL-8" style="edgeStyle=orthogonalEdgeStyle;rounded=1;orthogonalLoop=1;jettySize=auto;html=1;exitX=0.25;exitY=1;exitDx=0;exitDy=0;entryX=0;entryY=0.25;entryDx=0;entryDy=0;" edge="1" parent="1" source="qGKSi0UmujYfA3TloqsL-2" target="qGKSi0UmujYfA3TloqsL-5">
          <mxGeometry relative="1" as="geometry" />
        </mxCell>
        <mxCell id="qGKSi0UmujYfA3TloqsL-9" style="edgeStyle=orthogonalEdgeStyle;rounded=1;orthogonalLoop=1;jettySize=auto;html=1;exitX=0.25;exitY=1;exitDx=0;exitDy=0;entryX=0;entryY=0.25;entryDx=0;entryDy=0;" edge="1" parent="1" source="qGKSi0UmujYfA3TloqsL-2" target="qGKSi0UmujYfA3TloqsL-6">
          <mxGeometry relative="1" as="geometry" />
        </mxCell>
        <mxCell id="qGKSi0UmujYfA3TloqsL-10" style="edgeStyle=orthogonalEdgeStyle;rounded=1;orthogonalLoop=1;jettySize=auto;html=1;exitX=0.25;exitY=1;exitDx=0;exitDy=0;entryX=0;entryY=0.25;entryDx=0;entryDy=0;" edge="1" parent="1" source="qGKSi0UmujYfA3TloqsL-2" target="qGKSi0UmujYfA3TloqsL-7">
          <mxGeometry relative="1" as="geometry" />
        </mxCell>
        <mxCell id="qGKSi0UmujYfA3TloqsL-2" value="Тексты" style="rounded=0;whiteSpace=wrap;html=1;" vertex="1" parent="1">
          <mxGeometry x="50" y="170" width="120" height="60" as="geometry" />
        </mxCell>
        <mxCell id="qGKSi0UmujYfA3TloqsL-14" style="edgeStyle=orthogonalEdgeStyle;rounded=1;orthogonalLoop=1;jettySize=auto;html=1;exitX=0.25;exitY=1;exitDx=0;exitDy=0;entryX=0;entryY=0.383;entryDx=0;entryDy=0;entryPerimeter=0;" edge="1" parent="1" source="qGKSi0UmujYfA3TloqsL-4" target="qGKSi0UmujYfA3TloqsL-11">
          <mxGeometry relative="1" as="geometry" />
        </mxCell>
        <mxCell id="qGKSi0UmujYfA3TloqsL-15" style="edgeStyle=orthogonalEdgeStyle;rounded=1;orthogonalLoop=1;jettySize=auto;html=1;exitX=0.25;exitY=1;exitDx=0;exitDy=0;entryX=0;entryY=0.5;entryDx=0;entryDy=0;" edge="1" parent="1" source="qGKSi0UmujYfA3TloqsL-4" target="qGKSi0UmujYfA3TloqsL-12">
          <mxGeometry relative="1" as="geometry" />
        </mxCell>
        <mxCell id="qGKSi0UmujYfA3TloqsL-16" style="edgeStyle=orthogonalEdgeStyle;rounded=1;orthogonalLoop=1;jettySize=auto;html=1;exitX=0.25;exitY=1;exitDx=0;exitDy=0;entryX=0;entryY=0.367;entryDx=0;entryDy=0;entryPerimeter=0;" edge="1" parent="1" source="qGKSi0UmujYfA3TloqsL-4" target="qGKSi0UmujYfA3TloqsL-13">
          <mxGeometry relative="1" as="geometry" />
        </mxCell>
        <mxCell id="qGKSi0UmujYfA3TloqsL-4" value="Внетекстовые компоненты" style="rounded=0;whiteSpace=wrap;html=1;" vertex="1" parent="1">
          <mxGeometry x="310" y="170" width="120" height="60" as="geometry" />
        </mxCell>
        <mxCell id="qGKSi0UmujYfA3TloqsL-5" value="Основной" style="rounded=0;whiteSpace=wrap;html=1;" vertex="1" parent="1">
          <mxGeometry x="110" y="260" width="120" height="60" as="geometry" />
        </mxCell>
        <mxCell id="qGKSi0UmujYfA3TloqsL-6" value="Дополнительный" style="rounded=0;whiteSpace=wrap;html=1;" vertex="1" parent="1">
          <mxGeometry x="110" y="330" width="120" height="60" as="geometry" />
        </mxCell>
        <mxCell id="qGKSi0UmujYfA3TloqsL-7" value="Пояснительный" style="rounded=0;whiteSpace=wrap;html=1;" vertex="1" parent="1">
          <mxGeometry x="110" y="400" width="120" height="60" as="geometry" />
        </mxCell>
        <mxCell id="qGKSi0UmujYfA3TloqsL-23" style="edgeStyle=orthogonalEdgeStyle;rounded=1;orthogonalLoop=1;jettySize=auto;html=1;exitX=1;exitY=0.5;exitDx=0;exitDy=0;entryX=0;entryY=0.5;entryDx=0;entryDy=0;" edge="1" parent="1" source="qGKSi0UmujYfA3TloqsL-11" target="qGKSi0UmujYfA3TloqsL-18">
          <mxGeometry relative="1" as="geometry" />
        </mxCell>
        <mxCell id="qGKSi0UmujYfA3TloqsL-24" style="edgeStyle=orthogonalEdgeStyle;rounded=1;orthogonalLoop=1;jettySize=auto;html=1;exitX=1;exitY=0.5;exitDx=0;exitDy=0;entryX=0;entryY=0.5;entryDx=0;entryDy=0;" edge="1" parent="1" source="qGKSi0UmujYfA3TloqsL-11" target="qGKSi0UmujYfA3TloqsL-19">
          <mxGeometry relative="1" as="geometry" />
        </mxCell>
        <mxCell id="qGKSi0UmujYfA3TloqsL-11" value="Иллюстрации" style="rounded=0;whiteSpace=wrap;html=1;" vertex="1" parent="1">
          <mxGeometry x="380" y="390" width="120" height="60" as="geometry" />
        </mxCell>
        <mxCell id="qGKSi0UmujYfA3TloqsL-12" value="Аппарат организации и усвоения" style="rounded=0;whiteSpace=wrap;html=1;" vertex="1" parent="1">
          <mxGeometry x="380" y="250" width="120" height="60" as="geometry" />
        </mxCell>
        <mxCell id="qGKSi0UmujYfA3TloqsL-13" value="Аппарат ориентировки (навигации)" style="rounded=0;whiteSpace=wrap;html=1;" vertex="1" parent="1">
          <mxGeometry x="380" y="320" width="120" height="60" as="geometry" />
        </mxCell>
        <mxCell id="qGKSi0UmujYfA3TloqsL-17" value="Рефллексия" style="rounded=0;whiteSpace=wrap;html=1;" vertex="1" parent="1">
          <mxGeometry x="550" y="170" width="120" height="60" as="geometry" />
        </mxCell>
        <mxCell id="qGKSi0UmujYfA3TloqsL-18" value="Образы" style="rounded=0;whiteSpace=wrap;html=1;" vertex="1" parent="1">
          <mxGeometry x="550" y="290" width="120" height="60" as="geometry" />
        </mxCell>
        <mxCell id="qGKSi0UmujYfA3TloqsL-19" value="Звуковой ряд" style="rounded=0;whiteSpace=wrap;html=1;" vertex="1" parent="1">
          <mxGeometry x="550" y="360" width="120" height="60" as="geometry" />
        </mxCell>
        <mxCell id="qGKSi0UmujYfA3TloqsL-20" value="Графика" style="rounded=0;whiteSpace=wrap;html=1;" vertex="1" parent="1">
          <mxGeometry x="550" y="430" width="120" height="60" as="geometry" />
        </mxCell>
        <mxCell id="qGKSi0UmujYfA3TloqsL-21" value="Анимация" style="rounded=0;whiteSpace=wrap;html=1;" vertex="1" parent="1">
          <mxGeometry x="550" y="500" width="120" height="60" as="geometry" />
        </mxCell>
        <mxCell id="qGKSi0UmujYfA3TloqsL-22" value="Видео" style="rounded=0;whiteSpace=wrap;html=1;" vertex="1" parent="1">
          <mxGeometry x="550" y="570" width="120" height="60" as="geometry" />
        </mxCell>
        <mxCell id="qGKSi0UmujYfA3TloqsL-25" style="edgeStyle=orthogonalEdgeStyle;rounded=1;orthogonalLoop=1;jettySize=auto;html=1;exitX=1;exitY=0.5;exitDx=0;exitDy=0;" edge="1" parent="1" source="qGKSi0UmujYfA3TloqsL-11" target="qGKSi0UmujYfA3TloqsL-20">
          <mxGeometry relative="1" as="geometry">
            <mxPoint x="510" y="430" as="sourcePoint" />
            <mxPoint x="560" y="400" as="targetPoint" />
          </mxGeometry>
        </mxCell>
        <mxCell id="qGKSi0UmujYfA3TloqsL-26" style="edgeStyle=orthogonalEdgeStyle;rounded=1;orthogonalLoop=1;jettySize=auto;html=1;exitX=1;exitY=0.5;exitDx=0;exitDy=0;entryX=0;entryY=0.5;entryDx=0;entryDy=0;" edge="1" parent="1" source="qGKSi0UmujYfA3TloqsL-11" target="qGKSi0UmujYfA3TloqsL-21">
          <mxGeometry relative="1" as="geometry">
            <mxPoint x="510" y="430" as="sourcePoint" />
            <mxPoint x="560" y="470" as="targetPoint" />
          </mxGeometry>
        </mxCell>
        <mxCell id="qGKSi0UmujYfA3TloqsL-27" style="edgeStyle=orthogonalEdgeStyle;rounded=1;orthogonalLoop=1;jettySize=auto;html=1;exitX=1;exitY=0.5;exitDx=0;exitDy=0;entryX=0;entryY=0.5;entryDx=0;entryDy=0;" edge="1" parent="1" source="qGKSi0UmujYfA3TloqsL-11" target="qGKSi0UmujYfA3TloqsL-22">
          <mxGeometry relative="1" as="geometry">
            <mxPoint x="510" y="430" as="sourcePoint" />
            <mxPoint x="560" y="540" as="targetPoint" />
          </mxGeometry>
        </mxCell>
      </root>
    </mxGraphModel>
  </diagram>
</mxfile>
